<?xml version="1.0" encoding="UTF-8"?>
<svg xmlns="http://www.w3.org/2000/svg" xmlns:xlink="http://www.w3.org/1999/xlink" width="562" zoomAndPan="magnify" viewBox="0 0 421.5 622.499981" height="830" preserveAspectRatio="xMidYMid meet" version="1.0"><style data-sva="1">.sva{animation:sva-draw 4s linear 1 both}
@keyframes sva-draw{0%{stroke:var(--sva-sc);stroke-width:var(--sva-sw);stroke-dasharray:var(--sva-len);stroke-dashoffset:var(--sva-len);fill-opacity:0;stroke-opacity:1;animation-timing-function:cubic-bezier(.45,0,.35,1)}60%{stroke:var(--sva-sc);stroke-width:var(--sva-sw);stroke-dasharray:var(--sva-len);stroke-dashoffset:0;fill-opacity:0;stroke-opacity:1;animation-timing-function:ease-out}100%{stroke:var(--sva-sc);stroke-width:var(--sva-sw);stroke-dasharray:var(--sva-len);stroke-dashoffset:0;fill-opacity:1;stroke-opacity:var(--sva-se)}}
@media (prefers-reduced-motion:reduce){.sva{animation:none!important}}</style><defs><filter x="0%" y="0%" width="100%" height="100%" id="5cc762cdea"><feColorMatrix values="0 0 0 0 1 0 0 0 0 1 0 0 0 0 1 0 0 0 1 0" color-interpolation-filters="sRGB"/></filter><g/><mask id="27a71b034d"><g filter="url(#5cc762cdea)"><rect x="-42.15" width="505.8" fill="#000000" y="-62.249998" height="746.999977" fill-opacity="0.71"/></g></mask><clipPath id="aaebef262e"><path d="M 0.304688 0.21875 L 330.394531 0.21875 L 330.394531 134.21875 L 0.304688 134.21875 Z M 0.304688 0.21875 " clip-rule="nonzero"/></clipPath><clipPath id="35ce2c2fa4"><rect x="0" width="331" y="0" height="135"/></clipPath><clipPath id="9a324badab"><rect x="0" width="331" y="0" height="135"/></clipPath></defs><g><path fill="#333333" d="M 336.355469 1.449219 C 328.246094 1.746094 329.660156 14.316406 337.84375 12.53125 C 348.179688 10.300781 358.59375 11.9375 365.4375 20.710938 C 371.386719 28.300781 373.320312 40.570312 368.113281 49.125 C 359.488281 63.332031 336.800781 65.414062 322 65.636719 C 297.382812 65.933594 273.28125 58.867188 249.855469 51.652344 C 254.242188 37.894531 261.457031 25.398438 273.507812 15.804688 C 274.992188 14.613281 273.058594 12.085938 271.421875 13.125 C 257.738281 22.273438 248.21875 34.84375 241.449219 49.050781 C 240.40625 48.753906 239.367188 48.382812 238.324219 48.082031 C 194.664062 34.695312 133.082031 19.078125 103.851562 66.453125 C 96.191406 78.875 114.933594 89.289062 123.113281 77.761719 C 133.601562 63.035156 145.578125 52.546875 164.023438 49.644531 C 182.542969 46.746094 201.582031 50.015625 219.65625 53.960938 C 225.605469 55.296875 231.484375 56.785156 237.433594 58.273438 C 231.484375 73.59375 228.136719 90.253906 225.90625 106.171875 C 223.746094 121.34375 222.707031 136.59375 222.1875 151.765625 C 211.773438 151.839844 201.433594 152.957031 190.945312 156.003906 C 176.667969 160.171875 163.425781 167.308594 152.417969 176.683594 C 124.15625 166.195312 94.183594 184.566406 78.710938 208.8125 C 61.753906 235.367188 55.28125 271.734375 61.605469 302.527344 C 68.222656 334.363281 91.949219 358.089844 122.59375 367.609375 C 156.734375 378.171875 190.945312 370.210938 215.714844 343.957031 C 253.199219 304.089844 250.746094 240.125 247.921875 189.25 C 247.324219 178.988281 246.507812 168.722656 245.613281 158.535156 C 254.6875 159.5 263.761719 160.765625 272.761719 161.730469 C 294.40625 164.113281 324.15625 172.8125 344.089844 160.246094 C 357.550781 151.691406 362.015625 134.808594 351.378906 122.460938 C 344.910156 114.949219 333.082031 127.148438 340.667969 133.171875 C 349.519531 140.238281 344.238281 150.949219 336.355469 155.855469 C 328.546875 160.691406 318.949219 159.871094 310.175781 159.203125 C 294.035156 158.011719 277.894531 156.078125 261.828125 154.441406 C 256.25 153.921875 250.671875 153.328125 245.167969 152.808594 C 243.605469 133.320312 242.265625 113.757812 243.234375 94.121094 C 243.753906 82.964844 244.871094 71.660156 247.324219 60.800781 C 269.710938 66.753906 292.175781 72.703125 315.378906 73 C 337.546875 73.222656 373.394531 68.386719 376.445312 40.792969 C 378.898438 18.035156 358.222656 0.554688 336.355469 1.449219 Z M 219.804688 249.570312 C 217.203125 284.679688 209.839844 319.5625 177.261719 338.378906 C 152.71875 352.511719 123.933594 361.0625 98.125 345.074219 C 70.007812 327.667969 60.339844 294.644531 63.316406 263.257812 C 66.4375 230.828125 82.28125 192.96875 115.898438 182.335938 C 126.386719 179.0625 137.171875 178.988281 146.765625 181.960938 C 133.75 195.054688 124.75 211.789062 122.445312 231.199219 C 120.585938 247.042969 121.253906 271.066406 134.570312 282.371094 C 144.683594 290.925781 158.816406 288.621094 168.929688 281.40625 C 201.953125 257.679688 193.476562 199.367188 159.933594 180.328125 C 158.742188 179.65625 157.550781 179.0625 156.363281 178.46875 C 167.742188 169.394531 181.425781 163.21875 195.632812 159.871094 C 204.335938 157.863281 213.1875 157.121094 221.960938 157.195312 C 221.144531 187.914062 222.035156 218.707031 219.804688 249.570312 Z M 150.632812 183.375 C 161.34375 187.765625 170.269531 196.09375 175.253906 208.144531 C 183.433594 227.929688 182.988281 257.382812 165.4375 272.332031 C 159.933594 277.015625 151.75 281.257812 144.386719 279.324219 C 133.007812 276.421875 129.289062 263.183594 127.652344 252.992188 C 124.304688 232.464844 128.542969 211.492188 140.816406 194.53125 C 143.792969 190.515625 147.066406 186.796875 150.632812 183.375 Z M 150.632812 183.375 " fill-opacity="1" fill-rule="nonzero" class="sva" style="animation-delay: 0s; --sva-len: 3027.9px; --sva-sc: rgb(51, 51, 51); --sva-sw: 1.81px; --sva-se: 0;"/></g><g><g mask="url(#27a71b034d)"><g transform="matrix(1, 0, 0, 1, 45, 388)"><g clip-path="url(#9a324badab)"><g clip-path="url(#aaebef262e)"><g transform="matrix(1, 0, 0, 1, -0.000000000000007105, -0.000000000000227374)"><g clip-path="url(#35ce2c2fa4)"><g fill="#000000" fill-opacity="1"><g transform="translate(0.494088, 104.917658)"><g><path d="M 8.226562 0 L 11.210938 0 L 11.210938 -46.996094 L 31.363281 -46.996094 L 31.363281 -49.875 L 11.210938 -49.875 C 11.3125 -59.027344 11.929688 -64.785156 16.660156 -69.3125 C 20.15625 -72.601562 24.988281 -74.554688 30.746094 -74.554688 L 31.570312 -74.554688 L 31.570312 -77.230469 C 30.746094 -77.332031 30.4375 -77.332031 29.820312 -77.332031 C 23.753906 -77.332031 17.996094 -74.863281 14.5 -71.367188 C 8.433594 -65.300781 8.226562 -59.335938 8.226562 -49.050781 Z M 8.226562 0 " class="sva" style="animation-delay: 0.063s; --sva-len: 225.5px; --sva-sc: rgb(0, 0, 0); --sva-sw: 1.81px; --sva-se: 0;"/></g></g></g><g fill="#000000" fill-opacity="1"><g transform="translate(32.371529, 104.917658)"><g><path d="M 8.226562 -75.582031 L 8.226562 -26.941406 C 8.226562 -16.660156 8.433594 -10.695312 14.5 -4.628906 C 17.789062 -1.335938 23.34375 1.234375 30.027344 1.234375 C 30.128906 1.234375 30.746094 1.234375 31.570312 1.234375 L 31.570312 -1.441406 L 30.746094 -1.441406 C 24.988281 -1.441406 20.15625 -3.394531 16.660156 -6.683594 C 11.621094 -11.515625 11.210938 -17.6875 11.210938 -27.972656 L 11.210938 -75.582031 Z M 8.226562 -75.582031 " class="sva" style="animation-delay: 0.125s; --sva-len: 184.3px; --sva-sc: rgb(0, 0, 0); --sva-sw: 1.81px; --sva-se: 0;"/></g></g></g><g fill="#000000" fill-opacity="1"><g transform="translate(61.266891, 104.917658)"><g><path d="M 8.226562 -49.875 L 8.226562 -21.800781 C 8.226562 -21.390625 8.226562 -21.082031 8.226562 -20.667969 C 8.226562 -14.5 9.871094 -10.078125 13.265625 -6.171875 C 17.171875 -1.542969 23.035156 1.132812 29.410156 1.132812 C 38.355469 1.132812 47.097656 -5.039062 49.464844 -12.957031 C 50.285156 -15.734375 50.699219 -19.949219 50.699219 -26.632812 L 50.699219 -49.875 L 47.714844 -49.875 L 47.714844 -24.578125 C 47.714844 -16.246094 46.6875 -12.441406 43.5 -8.433594 C 39.898438 -3.90625 34.964844 -1.542969 29.410156 -1.542969 C 21.699219 -1.542969 13.984375 -7.300781 12.03125 -14.5 C 11.414062 -16.554688 11.105469 -20.667969 11.105469 -24.578125 L 11.105469 -49.875 Z M 8.226562 -49.875 " class="sva" style="animation-delay: 0.188s; --sva-len: 250.4px; --sva-sc: rgb(0, 0, 0); --sva-sw: 1.81px; --sva-se: 0;"/></g></g></g><g fill="#000000" fill-opacity="1"><g transform="translate(119.983092, 104.917658)"><g><path d="M 22.316406 -50.699219 C 21.699219 -50.800781 21.285156 -50.800781 20.875 -50.800781 C 13.675781 -50.800781 7.710938 -44.527344 7.710938 -37.125 C 7.710938 -31.671875 11.515625 -26.429688 16.351562 -25.398438 C 11.515625 -24.679688 7.199219 -18.714844 7.199219 -12.855469 C 7.199219 -5.140625 13.164062 1.234375 21.390625 1.234375 C 21.699219 1.234375 22.007812 1.234375 22.316406 1.234375 L 22.316406 -1.644531 L 21.492188 -1.644531 C 15.015625 -1.644531 10.285156 -6.375 10.285156 -12.75 C 10.285156 -19.023438 15.117188 -23.960938 21.390625 -23.960938 L 22.316406 -23.960938 L 22.316406 -26.839844 L 21.390625 -26.839844 C 15.425781 -26.839844 10.796875 -31.46875 10.796875 -37.433594 C 10.796875 -43.394531 15.425781 -47.921875 21.390625 -47.921875 C 21.699219 -47.921875 22.007812 -47.921875 22.316406 -47.921875 Z M 22.316406 -50.699219 " class="sva" style="animation-delay: 0.25s; --sva-len: 159.7px; --sva-sc: rgb(0, 0, 0); --sva-sw: 1.81px; --sva-se: 0;"/></g></g></g><g fill="#000000" fill-opacity="1"><g transform="translate(148.158633, 104.917658)"><g><path d="M 8.945312 -51.007812 L 8.945312 0 L 11.929688 0 L 11.929688 -44.117188 L 61.1875 1.234375 L 61.1875 -49.875 L 58.203125 -49.875 L 58.203125 -5.554688 Z M 8.945312 -51.007812 " class="sva" style="animation-delay: 0.313s; --sva-len: 331.5px; --sva-sc: rgb(0, 0, 0); --sva-sw: 1.81px; --sva-se: 0;"/></g></g></g><g fill="#000000" fill-opacity="1"><g transform="translate(218.289006, 104.917658)"><g><path d="M 48.847656 -42.78125 C 44.9375 -46.996094 38.769531 -50.800781 30.027344 -50.800781 C 15.734375 -50.800781 4.011719 -39.179688 4.011719 -24.785156 C 4.011719 -10.386719 15.734375 1.234375 30.128906 1.234375 C 38.664062 1.234375 45.042969 -2.671875 48.847656 -6.785156 L 46.789062 -8.742188 C 42.058594 -3.90625 36.507812 -1.441406 30.027344 -1.441406 C 17.171875 -1.441406 7.09375 -11.824219 7.09375 -24.785156 C 7.09375 -37.636719 17.277344 -48.023438 30.027344 -48.023438 C 36.300781 -48.023438 42.058594 -45.554688 46.894531 -40.824219 Z M 48.847656 -42.78125 " class="sva" style="animation-delay: 0.375s; --sva-len: 240.8px; --sva-sc: rgb(0, 0, 0); --sva-sw: 1.81px; --sva-se: 0;"/></g></g></g><g fill="#000000" fill-opacity="1"><g transform="translate(270.526871, 104.917658)"><g><path d="M 47.507812 0.925781 C 47.507812 8.328125 47.097656 14.808594 41.648438 19.746094 C 38.355469 22.828125 34.140625 24.371094 29.308594 24.371094 C 27.972656 24.371094 26.015625 24.167969 25.296875 23.960938 L 24.785156 26.632812 C 25.707031 26.941406 27.558594 27.148438 29.410156 27.148438 C 37.945312 27.148438 45.351562 22.519531 48.539062 15.117188 C 49.976562 11.722656 50.492188 7.917969 50.492188 0.925781 L 50.492188 -50.183594 L 47.40625 -50.183594 L 47.40625 -21.902344 C 47.40625 -18.40625 47.304688 -16.863281 46.480469 -14.191406 C 44.117188 -6.582031 37.226562 -1.542969 29.308594 -1.542969 C 21.800781 -1.542969 14.910156 -6.273438 12.339844 -13.472656 C 11.210938 -16.660156 11.210938 -19.332031 11.210938 -24.371094 L 11.210938 -49.875 L 8.226562 -49.875 L 8.226562 -24.371094 C 8.226562 -19.847656 8.125 -16.863281 9.5625 -12.441406 C 12.339844 -4.320312 20.359375 1.234375 29.308594 1.234375 C 35.992188 1.234375 41.855469 -1.75 45.453125 -6.785156 C 46.277344 -7.917969 46.6875 -8.535156 47.507812 -10.179688 Z M 47.507812 0.925781 " class="sva" style="animation-delay: 0.438s; --sva-len: 356.4px; --sva-sc: rgb(0, 0, 0); --sva-sw: 1.81px; --sva-se: 0;"/></g></g></g></g></g></g></g></g></g></g><g><g fill="#333333" fill-opacity="1"><g transform="translate(90.689964, 571.841371)"><g><path d="M 19.125 -9.328125 C 19.125 -7.921875 18.90625 -6.632812 18.46875 -5.46875 C 18.039062 -4.3125 17.425781 -3.300781 16.625 -2.4375 C 15.820312 -1.570312 14.875 -0.90625 13.78125 -0.4375 C 12.6875 0.03125 11.492188 0.265625 10.203125 0.265625 C 8.910156 0.265625 7.71875 0.03125 6.625 -0.4375 C 5.53125 -0.90625 4.582031 -1.570312 3.78125 -2.4375 C 2.976562 -3.300781 2.359375 -4.3125 1.921875 -5.46875 C 1.492188 -6.632812 1.28125 -7.921875 1.28125 -9.328125 C 1.28125 -10.722656 1.492188 -12.003906 1.921875 -13.171875 C 2.359375 -14.335938 2.976562 -15.347656 3.78125 -16.203125 C 4.582031 -17.066406 5.53125 -17.734375 6.625 -18.203125 C 7.71875 -18.679688 8.910156 -18.921875 10.203125 -18.921875 C 11.492188 -18.921875 12.6875 -18.679688 13.78125 -18.203125 C 14.875 -17.734375 15.820312 -17.066406 16.625 -16.203125 C 17.425781 -15.347656 18.039062 -14.335938 18.46875 -13.171875 C 18.90625 -12.003906 19.125 -10.722656 19.125 -9.328125 Z M 17.421875 -9.328125 C 17.421875 -10.898438 17.113281 -12.285156 16.5 -13.484375 C 15.882812 -14.691406 15.035156 -15.628906 13.953125 -16.296875 C 12.867188 -16.972656 11.617188 -17.3125 10.203125 -17.3125 C 8.796875 -17.3125 7.546875 -16.972656 6.453125 -16.296875 C 5.367188 -15.628906 4.519531 -14.691406 3.90625 -13.484375 C 3.289062 -12.285156 2.984375 -10.898438 2.984375 -9.328125 C 2.984375 -7.742188 3.289062 -6.351562 3.90625 -5.15625 C 4.519531 -3.957031 5.367188 -3.019531 6.453125 -2.34375 C 7.546875 -1.664062 8.796875 -1.328125 10.203125 -1.328125 C 11.617188 -1.328125 12.867188 -1.664062 13.953125 -2.34375 C 15.035156 -3.019531 15.882812 -3.957031 16.5 -5.15625 C 17.113281 -6.351562 17.421875 -7.742188 17.421875 -9.328125 Z M 17.421875 -9.328125 " class="sva" style="animation-delay: 0.5s; --sva-len: 108.1px; --sva-sc: rgb(51, 51, 51); --sva-sw: 1.81px; --sva-se: 0;"/></g></g></g></g><g><g fill="#333333" fill-opacity="1"><g transform="translate(111.087393, 571.841371)"><g><path d="M 16.140625 -18.65625 C 16.367188 -18.65625 16.550781 -18.582031 16.6875 -18.4375 C 16.820312 -18.289062 16.890625 -18.113281 16.890625 -17.90625 L 16.890625 -0.859375 C 16.890625 -0.585938 16.804688 -0.375 16.640625 -0.21875 C 16.472656 -0.0703125 16.28125 0 16.0625 0 C 15.957031 0 15.84375 -0.0195312 15.71875 -0.0625 C 15.59375 -0.113281 15.492188 -0.179688 15.421875 -0.265625 L 3.546875 -16.28125 L 4 -16.515625 L 4 -0.71875 C 4 -0.519531 3.925781 -0.347656 3.78125 -0.203125 C 3.632812 -0.0664062 3.457031 0 3.25 0 C 3.019531 0 2.835938 -0.0664062 2.703125 -0.203125 C 2.566406 -0.347656 2.5 -0.519531 2.5 -0.71875 L 2.5 -17.84375 C 2.5 -18.113281 2.578125 -18.316406 2.734375 -18.453125 C 2.898438 -18.585938 3.082031 -18.65625 3.28125 -18.65625 C 3.382812 -18.65625 3.5 -18.628906 3.625 -18.578125 C 3.75 -18.535156 3.847656 -18.460938 3.921875 -18.359375 L 15.671875 -2.53125 L 15.390625 -2.046875 L 15.390625 -17.90625 C 15.390625 -18.113281 15.460938 -18.289062 15.609375 -18.4375 C 15.765625 -18.582031 15.941406 -18.65625 16.140625 -18.65625 Z M 16.140625 -18.65625 " class="sva" style="animation-delay: 0.563s; --sva-len: 116.3px; --sva-sc: rgb(51, 51, 51); --sva-sw: 1.81px; --sva-se: 0;"/></g></g></g></g><g><g fill="#333333" fill-opacity="1"><g transform="translate(130.472936, 571.841371)"><g><path d="M 3.296875 -18.65625 L 13.078125 -18.65625 C 13.296875 -18.65625 13.484375 -18.578125 13.640625 -18.421875 C 13.796875 -18.273438 13.875 -18.082031 13.875 -17.84375 C 13.875 -17.613281 13.796875 -17.425781 13.640625 -17.28125 C 13.484375 -17.144531 13.296875 -17.078125 13.078125 -17.078125 L 3.921875 -17.078125 L 4.1875 -17.53125 L 4.1875 -10.046875 L 3.890625 -10.390625 L 11.875 -10.390625 C 12.09375 -10.390625 12.28125 -10.304688 12.4375 -10.140625 C 12.601562 -9.984375 12.6875 -9.800781 12.6875 -9.59375 C 12.6875 -9.363281 12.601562 -9.175781 12.4375 -9.03125 C 12.28125 -8.882812 12.09375 -8.8125 11.875 -8.8125 L 3.9375 -8.8125 L 4.1875 -9.078125 L 4.1875 -1.40625 L 4.046875 -1.578125 L 13.078125 -1.578125 C 13.296875 -1.578125 13.484375 -1.492188 13.640625 -1.328125 C 13.796875 -1.171875 13.875 -0.984375 13.875 -0.765625 C 13.875 -0.535156 13.796875 -0.347656 13.640625 -0.203125 C 13.484375 -0.0664062 13.296875 0 13.078125 0 L 3.296875 0 C 3.085938 0 2.898438 -0.078125 2.734375 -0.234375 C 2.578125 -0.398438 2.5 -0.585938 2.5 -0.796875 L 2.5 -17.84375 C 2.5 -18.0625 2.578125 -18.25 2.734375 -18.40625 C 2.898438 -18.570312 3.085938 -18.65625 3.296875 -18.65625 Z M 3.296875 -18.65625 " class="sva" style="animation-delay: 0.625s; --sva-len: 98.5px; --sva-sc: rgb(51, 51, 51); --sva-sw: 1.81px; --sva-se: 0;"/></g></g></g></g><g><g fill="#333333" fill-opacity="1"><g transform="translate(145.597919, 571.841371)"><g/></g></g></g><g><g fill="#333333" fill-opacity="1"><g transform="translate(152.867497, 571.841371)"><g><path d="M 24.078125 -18.703125 C 24.304688 -18.703125 24.503906 -18.632812 24.671875 -18.5 C 24.847656 -18.363281 24.9375 -18.164062 24.9375 -17.90625 C 24.9375 -17.8125 24.914062 -17.695312 24.875 -17.5625 L 19 -0.5 C 18.945312 -0.34375 18.847656 -0.21875 18.703125 -0.125 C 18.554688 -0.0390625 18.414062 0 18.28125 0 C 18.101562 0 17.941406 -0.0351562 17.796875 -0.109375 C 17.648438 -0.191406 17.539062 -0.320312 17.46875 -0.5 L 12.765625 -12.171875 L 12.96875 -12.125 L 8.265625 -0.5 C 8.191406 -0.320312 8.078125 -0.191406 7.921875 -0.109375 C 7.773438 -0.0351562 7.617188 0 7.453125 0 C 7.316406 0 7.179688 -0.0390625 7.046875 -0.125 C 6.910156 -0.21875 6.816406 -0.34375 6.765625 -0.5 L 0.875 -17.5625 C 0.820312 -17.695312 0.796875 -17.800781 0.796875 -17.875 C 0.796875 -18.144531 0.894531 -18.347656 1.09375 -18.484375 C 1.289062 -18.628906 1.484375 -18.703125 1.671875 -18.703125 C 1.847656 -18.703125 2.007812 -18.65625 2.15625 -18.5625 C 2.300781 -18.476562 2.398438 -18.359375 2.453125 -18.203125 L 7.8125 -2.578125 L 7.515625 -2.5625 L 12.140625 -14.125 C 12.203125 -14.28125 12.296875 -14.40625 12.421875 -14.5 C 12.554688 -14.601562 12.710938 -14.644531 12.890625 -14.625 C 13.066406 -14.644531 13.222656 -14.601562 13.359375 -14.5 C 13.492188 -14.40625 13.597656 -14.28125 13.671875 -14.125 L 18.25 -2.609375 L 17.953125 -2.5 L 23.28125 -18.203125 C 23.332031 -18.359375 23.429688 -18.476562 23.578125 -18.5625 C 23.722656 -18.65625 23.890625 -18.703125 24.078125 -18.703125 Z M 24.078125 -18.703125 " class="sva" style="animation-delay: 0.688s; --sva-len: 132.2px; --sva-sc: rgb(51, 51, 51); --sva-sw: 1.81px; --sva-se: 0;"/></g></g></g></g><g><g fill="#333333" fill-opacity="1"><g transform="translate(178.45744, 571.841371)"><g><path d="M 19.125 -9.328125 C 19.125 -7.921875 18.90625 -6.632812 18.46875 -5.46875 C 18.039062 -4.3125 17.425781 -3.300781 16.625 -2.4375 C 15.820312 -1.570312 14.875 -0.90625 13.78125 -0.4375 C 12.6875 0.03125 11.492188 0.265625 10.203125 0.265625 C 8.910156 0.265625 7.71875 0.03125 6.625 -0.4375 C 5.53125 -0.90625 4.582031 -1.570312 3.78125 -2.4375 C 2.976562 -3.300781 2.359375 -4.3125 1.921875 -5.46875 C 1.492188 -6.632812 1.28125 -7.921875 1.28125 -9.328125 C 1.28125 -10.722656 1.492188 -12.003906 1.921875 -13.171875 C 2.359375 -14.335938 2.976562 -15.347656 3.78125 -16.203125 C 4.582031 -17.066406 5.53125 -17.734375 6.625 -18.203125 C 7.71875 -18.679688 8.910156 -18.921875 10.203125 -18.921875 C 11.492188 -18.921875 12.6875 -18.679688 13.78125 -18.203125 C 14.875 -17.734375 15.820312 -17.066406 16.625 -16.203125 C 17.425781 -15.347656 18.039062 -14.335938 18.46875 -13.171875 C 18.90625 -12.003906 19.125 -10.722656 19.125 -9.328125 Z M 17.421875 -9.328125 C 17.421875 -10.898438 17.113281 -12.285156 16.5 -13.484375 C 15.882812 -14.691406 15.035156 -15.628906 13.953125 -16.296875 C 12.867188 -16.972656 11.617188 -17.3125 10.203125 -17.3125 C 8.796875 -17.3125 7.546875 -16.972656 6.453125 -16.296875 C 5.367188 -15.628906 4.519531 -14.691406 3.90625 -13.484375 C 3.289062 -12.285156 2.984375 -10.898438 2.984375 -9.328125 C 2.984375 -7.742188 3.289062 -6.351562 3.90625 -5.15625 C 4.519531 -3.957031 5.367188 -3.019531 6.453125 -2.34375 C 7.546875 -1.664062 8.796875 -1.328125 10.203125 -1.328125 C 11.617188 -1.328125 12.867188 -1.664062 13.953125 -2.34375 C 15.035156 -3.019531 15.882812 -3.957031 16.5 -5.15625 C 17.113281 -6.351562 17.421875 -7.742188 17.421875 -9.328125 Z M 17.421875 -9.328125 " class="sva" style="animation-delay: 0.75s; --sva-len: 108.1px; --sva-sc: rgb(51, 51, 51); --sva-sw: 1.81px; --sva-se: 0;"/></g></g></g></g><g><g fill="#333333" fill-opacity="1"><g transform="translate(198.85487, 571.841371)"><g><path d="M 3.40625 0 C 3.144531 0 2.925781 -0.078125 2.75 -0.234375 C 2.582031 -0.398438 2.5 -0.585938 2.5 -0.796875 L 2.5 -17.84375 C 2.5 -18.0625 2.578125 -18.25 2.734375 -18.40625 C 2.898438 -18.570312 3.085938 -18.65625 3.296875 -18.65625 L 10.5 -18.65625 C 11.507812 -18.65625 12.410156 -18.4375 13.203125 -18 C 14.003906 -17.5625 14.628906 -16.957031 15.078125 -16.1875 C 15.535156 -15.425781 15.765625 -14.566406 15.765625 -13.609375 C 15.765625 -12.828125 15.625 -12.109375 15.34375 -11.453125 C 15.0625 -10.796875 14.660156 -10.238281 14.140625 -9.78125 C 13.628906 -9.332031 13.054688 -9.003906 12.421875 -8.796875 L 11.484375 -9.078125 C 12.140625 -9.023438 12.75 -8.816406 13.3125 -8.453125 C 13.882812 -8.085938 14.34375 -7.585938 14.6875 -6.953125 C 15.039062 -6.328125 15.222656 -5.570312 15.234375 -4.6875 C 15.253906 -3.925781 15.296875 -3.332031 15.359375 -2.90625 C 15.421875 -2.476562 15.515625 -2.15625 15.640625 -1.9375 C 15.765625 -1.726562 15.925781 -1.5625 16.125 -1.4375 C 16.300781 -1.332031 16.421875 -1.179688 16.484375 -0.984375 C 16.546875 -0.785156 16.519531 -0.597656 16.40625 -0.421875 C 16.332031 -0.285156 16.226562 -0.1875 16.09375 -0.125 C 15.96875 -0.0625 15.832031 -0.03125 15.6875 -0.03125 C 15.550781 -0.03125 15.410156 -0.0664062 15.265625 -0.140625 C 15.015625 -0.273438 14.757812 -0.492188 14.5 -0.796875 C 14.25 -1.097656 14.035156 -1.539062 13.859375 -2.125 C 13.691406 -2.71875 13.609375 -3.535156 13.609375 -4.578125 C 13.609375 -5.273438 13.5 -5.84375 13.28125 -6.28125 C 13.0625 -6.726562 12.773438 -7.070312 12.421875 -7.3125 C 12.078125 -7.550781 11.695312 -7.71875 11.28125 -7.8125 C 10.863281 -7.914062 10.46875 -7.96875 10.09375 -7.96875 L 3.890625 -7.96875 L 4.1875 -8.34375 L 4.1875 -0.796875 C 4.1875 -0.585938 4.113281 -0.398438 3.96875 -0.234375 C 3.820312 -0.078125 3.632812 0 3.40625 0 Z M 3.890625 -9.4375 L 10.578125 -9.4375 C 11.179688 -9.488281 11.75 -9.6875 12.28125 -10.03125 C 12.8125 -10.375 13.238281 -10.847656 13.5625 -11.453125 C 13.894531 -12.054688 14.0625 -12.757812 14.0625 -13.5625 C 14.0625 -14.570312 13.71875 -15.410156 13.03125 -16.078125 C 12.351562 -16.742188 11.460938 -17.078125 10.359375 -17.078125 L 4 -17.078125 L 4.1875 -17.453125 L 4.1875 -9.0625 Z M 3.890625 -9.4375 " class="sva" style="animation-delay: 0.813s; --sva-len: 115.6px; --sva-sc: rgb(51, 51, 51); --sva-sw: 1.81px; --sva-se: 0;"/></g></g></g></g><g><g fill="#333333" fill-opacity="1"><g transform="translate(216.695964, 571.841371)"><g><path d="M 10.09375 -18.65625 C 11.40625 -18.65625 12.554688 -18.40625 13.546875 -17.90625 C 14.535156 -17.40625 15.347656 -16.710938 15.984375 -15.828125 C 16.617188 -14.953125 17.09375 -13.953125 17.40625 -12.828125 C 17.71875 -11.710938 17.875 -10.546875 17.875 -9.328125 C 17.875 -7.617188 17.59375 -6.054688 17.03125 -4.640625 C 16.476562 -3.234375 15.628906 -2.109375 14.484375 -1.265625 C 13.335938 -0.421875 11.875 0 10.09375 0 L 3.296875 0 C 3.085938 0 2.898438 -0.078125 2.734375 -0.234375 C 2.578125 -0.398438 2.5 -0.585938 2.5 -0.796875 L 2.5 -17.84375 C 2.5 -18.0625 2.578125 -18.25 2.734375 -18.40625 C 2.898438 -18.570312 3.085938 -18.65625 3.296875 -18.65625 Z M 9.828125 -1.578125 C 11.335938 -1.578125 12.550781 -1.921875 13.46875 -2.609375 C 14.394531 -3.304688 15.078125 -4.242188 15.515625 -5.421875 C 15.953125 -6.597656 16.171875 -7.898438 16.171875 -9.328125 C 16.171875 -10.359375 16.050781 -11.335938 15.8125 -12.265625 C 15.570312 -13.203125 15.195312 -14.03125 14.6875 -14.75 C 14.1875 -15.46875 13.53125 -16.035156 12.71875 -16.453125 C 11.914062 -16.867188 10.953125 -17.078125 9.828125 -17.078125 L 4 -17.078125 L 4.1875 -17.3125 L 4.1875 -1.3125 L 4.015625 -1.578125 Z M 9.828125 -1.578125 " class="sva" style="animation-delay: 0.875s; --sva-len: 112.5px; --sva-sc: rgb(51, 51, 51); --sva-sw: 1.81px; --sva-se: 0;"/></g></g></g></g><g><g fill="#333333" fill-opacity="1"><g transform="translate(235.841854, 571.841371)"><g/></g></g></g><g><g fill="#333333" fill-opacity="1"><g transform="translate(243.111432, 571.841371)"><g><path d="M 8.734375 -16.59375 L 2.265625 -0.5 C 2.191406 -0.320312 2.09375 -0.1875 1.96875 -0.09375 C 1.84375 -0.0078125 1.703125 0.03125 1.546875 0.03125 C 1.296875 0.03125 1.109375 -0.0351562 0.984375 -0.171875 C 0.859375 -0.304688 0.785156 -0.472656 0.765625 -0.671875 C 0.753906 -0.753906 0.765625 -0.859375 0.796875 -0.984375 L 7.828125 -18.203125 C 7.921875 -18.390625 8.03125 -18.523438 8.15625 -18.609375 C 8.289062 -18.691406 8.445312 -18.734375 8.625 -18.734375 C 8.800781 -18.734375 8.957031 -18.679688 9.09375 -18.578125 C 9.226562 -18.484375 9.332031 -18.359375 9.40625 -18.203125 L 16.40625 -1.0625 C 16.445312 -0.957031 16.46875 -0.851562 16.46875 -0.75 C 16.46875 -0.5 16.382812 -0.304688 16.21875 -0.171875 C 16.0625 -0.0351562 15.878906 0.03125 15.671875 0.03125 C 15.484375 0.03125 15.320312 -0.015625 15.1875 -0.109375 C 15.0625 -0.210938 14.960938 -0.34375 14.890625 -0.5 L 8.265625 -16.703125 Z M 3.8125 -5.375 L 4.46875 -6.953125 L 12.734375 -6.953125 L 13.046875 -5.375 Z M 3.8125 -5.375 " class="sva" style="animation-delay: 0.938s; --sva-len: 101.3px; --sva-sc: rgb(51, 51, 51); --sva-sw: 1.81px; --sva-se: 0;"/></g></g></g></g><g><g fill="#333333" fill-opacity="1"><g transform="translate(260.340067, 571.841371)"><g/></g></g></g><g><g fill="#333333" fill-opacity="1"><g transform="translate(267.609645, 571.841371)"><g><path d="M 10.09375 -18.65625 C 11.40625 -18.65625 12.554688 -18.40625 13.546875 -17.90625 C 14.535156 -17.40625 15.347656 -16.710938 15.984375 -15.828125 C 16.617188 -14.953125 17.09375 -13.953125 17.40625 -12.828125 C 17.71875 -11.710938 17.875 -10.546875 17.875 -9.328125 C 17.875 -7.617188 17.59375 -6.054688 17.03125 -4.640625 C 16.476562 -3.234375 15.628906 -2.109375 14.484375 -1.265625 C 13.335938 -0.421875 11.875 0 10.09375 0 L 3.296875 0 C 3.085938 0 2.898438 -0.078125 2.734375 -0.234375 C 2.578125 -0.398438 2.5 -0.585938 2.5 -0.796875 L 2.5 -17.84375 C 2.5 -18.0625 2.578125 -18.25 2.734375 -18.40625 C 2.898438 -18.570312 3.085938 -18.65625 3.296875 -18.65625 Z M 9.828125 -1.578125 C 11.335938 -1.578125 12.550781 -1.921875 13.46875 -2.609375 C 14.394531 -3.304688 15.078125 -4.242188 15.515625 -5.421875 C 15.953125 -6.597656 16.171875 -7.898438 16.171875 -9.328125 C 16.171875 -10.359375 16.050781 -11.335938 15.8125 -12.265625 C 15.570312 -13.203125 15.195312 -14.03125 14.6875 -14.75 C 14.1875 -15.46875 13.53125 -16.035156 12.71875 -16.453125 C 11.914062 -16.867188 10.953125 -17.078125 9.828125 -17.078125 L 4 -17.078125 L 4.1875 -17.3125 L 4.1875 -1.3125 L 4.015625 -1.578125 Z M 9.828125 -1.578125 " class="sva" style="animation-delay: 1s; --sva-len: 112.5px; --sva-sc: rgb(51, 51, 51); --sva-sw: 1.81px; --sva-se: 0;"/></g></g></g></g><g><g fill="#333333" fill-opacity="1"><g transform="translate(286.622358, 571.841371)"><g><path d="M 8.734375 -16.59375 L 2.265625 -0.5 C 2.191406 -0.320312 2.09375 -0.1875 1.96875 -0.09375 C 1.84375 -0.0078125 1.703125 0.03125 1.546875 0.03125 C 1.296875 0.03125 1.109375 -0.0351562 0.984375 -0.171875 C 0.859375 -0.304688 0.785156 -0.472656 0.765625 -0.671875 C 0.753906 -0.753906 0.765625 -0.859375 0.796875 -0.984375 L 7.828125 -18.203125 C 7.921875 -18.390625 8.03125 -18.523438 8.15625 -18.609375 C 8.289062 -18.691406 8.445312 -18.734375 8.625 -18.734375 C 8.800781 -18.734375 8.957031 -18.679688 9.09375 -18.578125 C 9.226562 -18.484375 9.332031 -18.359375 9.40625 -18.203125 L 16.40625 -1.0625 C 16.445312 -0.957031 16.46875 -0.851562 16.46875 -0.75 C 16.46875 -0.5 16.382812 -0.304688 16.21875 -0.171875 C 16.0625 -0.0351562 15.878906 0.03125 15.671875 0.03125 C 15.484375 0.03125 15.320312 -0.015625 15.1875 -0.109375 C 15.0625 -0.210938 14.960938 -0.34375 14.890625 -0.5 L 8.265625 -16.703125 Z M 3.8125 -5.375 L 4.46875 -6.953125 L 12.734375 -6.953125 L 13.046875 -5.375 Z M 3.8125 -5.375 " class="sva" style="animation-delay: 1.063s; --sva-len: 101.3px; --sva-sc: rgb(51, 51, 51); --sva-sw: 1.81px; --sva-se: 0;"/></g></g></g></g><g><g fill="#333333" fill-opacity="1"><g transform="translate(302.705528, 571.841371)"><g><path d="M 13.609375 -18.75 C 13.835938 -18.75 14.023438 -18.664062 14.171875 -18.5 C 14.328125 -18.332031 14.40625 -18.148438 14.40625 -17.953125 C 14.40625 -17.867188 14.390625 -17.785156 14.359375 -17.703125 C 14.335938 -17.617188 14.300781 -17.535156 14.25 -17.453125 L 8 -8.84375 L 8.3125 -9.890625 L 8.3125 -0.796875 C 8.3125 -0.585938 8.226562 -0.398438 8.0625 -0.234375 C 7.90625 -0.078125 7.710938 0 7.484375 0 C 7.253906 0 7.0625 -0.078125 6.90625 -0.234375 C 6.757812 -0.398438 6.6875 -0.585938 6.6875 -0.796875 L 6.6875 -9.703125 L 6.8125 -9.0625 L 0.71875 -17.390625 C 0.644531 -17.484375 0.585938 -17.578125 0.546875 -17.671875 C 0.515625 -17.773438 0.5 -17.867188 0.5 -17.953125 C 0.5 -18.179688 0.59375 -18.367188 0.78125 -18.515625 C 0.96875 -18.671875 1.160156 -18.75 1.359375 -18.75 C 1.628906 -18.75 1.851562 -18.625 2.03125 -18.375 L 7.75 -10.578125 L 7.359375 -10.625 L 12.921875 -18.375 C 13.097656 -18.625 13.328125 -18.75 13.609375 -18.75 Z M 13.609375 -18.75 " class="sva" style="animation-delay: 1.125s; --sva-len: 69.1px; --sva-sc: rgb(51, 51, 51); --sva-sw: 1.81px; --sva-se: 0;"/></g></g></g></g><g><g fill="#333333" fill-opacity="1"><g transform="translate(317.59087, 571.841371)"><g><path d="M 2.3125 0 C 2.007812 0 1.78125 -0.0976562 1.625 -0.296875 C 1.46875 -0.492188 1.390625 -0.738281 1.390625 -1.03125 L 1.390625 -1.59375 C 1.390625 -1.914062 1.46875 -2.164062 1.625 -2.34375 C 1.78125 -2.519531 2.007812 -2.609375 2.3125 -2.609375 L 2.5 -2.609375 C 2.800781 -2.609375 3.03125 -2.519531 3.1875 -2.34375 C 3.351562 -2.164062 3.4375 -1.914062 3.4375 -1.59375 L 3.4375 -1.03125 C 3.4375 -0.738281 3.351562 -0.492188 3.1875 -0.296875 C 3.03125 -0.0976562 2.800781 0 2.5 0 Z M 2.3125 0 " class="sva" style="animation-delay: 1.188s; --sva-len: 8.8px; --sva-sc: rgb(51, 51, 51); --sva-sw: 1.81px; --sva-se: 0;"/></g></g></g></g><g><g fill="#333333" fill-opacity="1"><g transform="translate(322.411171, 571.841371)"><g/></g></g></g><g><g fill="#333333" fill-opacity="1"><g transform="translate(27.717791, 608.547827)"><g><path d="M 3.296875 -18.65625 L 13.078125 -18.65625 C 13.296875 -18.65625 13.484375 -18.578125 13.640625 -18.421875 C 13.796875 -18.273438 13.875 -18.082031 13.875 -17.84375 C 13.875 -17.613281 13.796875 -17.425781 13.640625 -17.28125 C 13.484375 -17.144531 13.296875 -17.078125 13.078125 -17.078125 L 3.921875 -17.078125 L 4.1875 -17.53125 L 4.1875 -10.046875 L 3.890625 -10.390625 L 11.875 -10.390625 C 12.09375 -10.390625 12.28125 -10.304688 12.4375 -10.140625 C 12.601562 -9.984375 12.6875 -9.800781 12.6875 -9.59375 C 12.6875 -9.363281 12.601562 -9.175781 12.4375 -9.03125 C 12.28125 -8.882812 12.09375 -8.8125 11.875 -8.8125 L 3.9375 -8.8125 L 4.1875 -9.078125 L 4.1875 -1.40625 L 4.046875 -1.578125 L 13.078125 -1.578125 C 13.296875 -1.578125 13.484375 -1.492188 13.640625 -1.328125 C 13.796875 -1.171875 13.875 -0.984375 13.875 -0.765625 C 13.875 -0.535156 13.796875 -0.347656 13.640625 -0.203125 C 13.484375 -0.0664062 13.296875 0 13.078125 0 L 3.296875 0 C 3.085938 0 2.898438 -0.078125 2.734375 -0.234375 C 2.578125 -0.398438 2.5 -0.585938 2.5 -0.796875 L 2.5 -17.84375 C 2.5 -18.0625 2.578125 -18.25 2.734375 -18.40625 C 2.898438 -18.570312 3.085938 -18.65625 3.296875 -18.65625 Z M 3.296875 -18.65625 " class="sva" style="animation-delay: 1.25s; --sva-len: 98.5px; --sva-sc: rgb(51, 51, 51); --sva-sw: 1.81px; --sva-se: 0;"/></g></g></g></g><g><g fill="#333333" fill-opacity="1"><g transform="translate(42.842774, 608.547827)"><g><path d="M 14.46875 -18.734375 C 14.675781 -18.734375 14.851562 -18.664062 15 -18.53125 C 15.15625 -18.394531 15.234375 -18.226562 15.234375 -18.03125 C 15.234375 -17.851562 15.171875 -17.6875 15.046875 -17.53125 L 8.921875 -9.1875 L 8.046875 -10.5 L 13.828125 -18.375 C 14.003906 -18.613281 14.21875 -18.734375 14.46875 -18.734375 Z M 1.734375 -18.734375 C 2.015625 -18.734375 2.234375 -18.625 2.390625 -18.40625 L 15.046875 -1.203125 C 15.171875 -1.035156 15.234375 -0.875 15.234375 -0.71875 C 15.234375 -0.46875 15.144531 -0.269531 14.96875 -0.125 C 14.789062 0.0078125 14.601562 0.078125 14.40625 0.078125 C 14.125 0.078125 13.910156 -0.0234375 13.765625 -0.234375 L 1.09375 -17.453125 C 0.96875 -17.585938 0.90625 -17.742188 0.90625 -17.921875 C 0.90625 -18.160156 0.988281 -18.351562 1.15625 -18.5 C 1.320312 -18.65625 1.515625 -18.734375 1.734375 -18.734375 Z M 1.65625 0.078125 C 1.425781 0.078125 1.25 0.00390625 1.125 -0.140625 C 1 -0.296875 0.9375 -0.453125 0.9375 -0.609375 C 0.9375 -0.773438 1 -0.953125 1.125 -1.140625 L 7.25 -9.484375 L 8.09375 -8.15625 L 2.296875 -0.265625 C 2.128906 -0.0351562 1.914062 0.078125 1.65625 0.078125 Z M 1.65625 0.078125 " class="sva" style="animation-delay: 1.313s; --sva-len: 97.2px; --sva-sc: rgb(51, 51, 51); --sva-sw: 1.81px; --sva-se: 0;"/></g></g></g></g><g><g fill="#333333" fill-opacity="1"><g transform="translate(58.979644, 608.547827)"><g><path d="M 9.625 -18.65625 C 10.613281 -18.65625 11.488281 -18.425781 12.25 -17.96875 C 13.019531 -17.519531 13.625 -16.894531 14.0625 -16.09375 C 14.507812 -15.289062 14.734375 -14.375 14.734375 -13.34375 C 14.734375 -12.3125 14.507812 -11.382812 14.0625 -10.5625 C 13.625 -9.738281 13.019531 -9.085938 12.25 -8.609375 C 11.488281 -8.128906 10.613281 -7.890625 9.625 -7.890625 L 3.96875 -7.890625 L 4.109375 -8.15625 L 4.109375 -0.796875 C 4.109375 -0.585938 4.023438 -0.398438 3.859375 -0.234375 C 3.703125 -0.078125 3.515625 0 3.296875 0 C 3.054688 0 2.863281 -0.078125 2.71875 -0.234375 C 2.570312 -0.398438 2.5 -0.585938 2.5 -0.796875 L 2.5 -17.84375 C 2.5 -18.0625 2.578125 -18.25 2.734375 -18.40625 C 2.898438 -18.570312 3.085938 -18.65625 3.296875 -18.65625 Z M 9.625 -9.4375 C 10.3125 -9.4375 10.910156 -9.609375 11.421875 -9.953125 C 11.941406 -10.296875 12.347656 -10.765625 12.640625 -11.359375 C 12.929688 -11.953125 13.078125 -12.613281 13.078125 -13.34375 C 13.078125 -14.070312 12.929688 -14.71875 12.640625 -15.28125 C 12.347656 -15.84375 11.941406 -16.28125 11.421875 -16.59375 C 10.910156 -16.914062 10.3125 -17.078125 9.625 -17.078125 L 3.96875 -17.078125 L 4.109375 -17.3125 L 4.109375 -9.265625 L 3.9375 -9.4375 Z M 9.625 -9.4375 " class="sva" style="animation-delay: 1.375s; --sva-len: 89.5px; --sva-sc: rgb(51, 51, 51); --sva-sw: 1.81px; --sva-se: 0;"/></g></g></g></g><g><g fill="#333333" fill-opacity="1"><g transform="translate(73.784698, 608.547827)"><g><path d="M 8.734375 -16.59375 L 2.265625 -0.5 C 2.191406 -0.320312 2.09375 -0.1875 1.96875 -0.09375 C 1.84375 -0.0078125 1.703125 0.03125 1.546875 0.03125 C 1.296875 0.03125 1.109375 -0.0351562 0.984375 -0.171875 C 0.859375 -0.304688 0.785156 -0.472656 0.765625 -0.671875 C 0.753906 -0.753906 0.765625 -0.859375 0.796875 -0.984375 L 7.828125 -18.203125 C 7.921875 -18.390625 8.03125 -18.523438 8.15625 -18.609375 C 8.289062 -18.691406 8.445312 -18.734375 8.625 -18.734375 C 8.800781 -18.734375 8.957031 -18.679688 9.09375 -18.578125 C 9.226562 -18.484375 9.332031 -18.359375 9.40625 -18.203125 L 16.40625 -1.0625 C 16.445312 -0.957031 16.46875 -0.851562 16.46875 -0.75 C 16.46875 -0.5 16.382812 -0.304688 16.21875 -0.171875 C 16.0625 -0.0351562 15.878906 0.03125 15.671875 0.03125 C 15.484375 0.03125 15.320312 -0.015625 15.1875 -0.109375 C 15.0625 -0.210938 14.960938 -0.34375 14.890625 -0.5 L 8.265625 -16.703125 Z M 3.8125 -5.375 L 4.46875 -6.953125 L 12.734375 -6.953125 L 13.046875 -5.375 Z M 3.8125 -5.375 " class="sva" style="animation-delay: 1.438s; --sva-len: 101.3px; --sva-sc: rgb(51, 51, 51); --sva-sw: 1.81px; --sva-se: 0;"/></g></g></g></g><g><g fill="#333333" fill-opacity="1"><g transform="translate(91.013333, 608.547827)"><g><path d="M 16.140625 -18.65625 C 16.367188 -18.65625 16.550781 -18.582031 16.6875 -18.4375 C 16.820312 -18.289062 16.890625 -18.113281 16.890625 -17.90625 L 16.890625 -0.859375 C 16.890625 -0.585938 16.804688 -0.375 16.640625 -0.21875 C 16.472656 -0.0703125 16.28125 0 16.0625 0 C 15.957031 0 15.84375 -0.0195312 15.71875 -0.0625 C 15.59375 -0.113281 15.492188 -0.179688 15.421875 -0.265625 L 3.546875 -16.28125 L 4 -16.515625 L 4 -0.71875 C 4 -0.519531 3.925781 -0.347656 3.78125 -0.203125 C 3.632812 -0.0664062 3.457031 0 3.25 0 C 3.019531 0 2.835938 -0.0664062 2.703125 -0.203125 C 2.566406 -0.347656 2.5 -0.519531 2.5 -0.71875 L 2.5 -17.84375 C 2.5 -18.113281 2.578125 -18.316406 2.734375 -18.453125 C 2.898438 -18.585938 3.082031 -18.65625 3.28125 -18.65625 C 3.382812 -18.65625 3.5 -18.628906 3.625 -18.578125 C 3.75 -18.535156 3.847656 -18.460938 3.921875 -18.359375 L 15.671875 -2.53125 L 15.390625 -2.046875 L 15.390625 -17.90625 C 15.390625 -18.113281 15.460938 -18.289062 15.609375 -18.4375 C 15.765625 -18.582031 15.941406 -18.65625 16.140625 -18.65625 Z M 16.140625 -18.65625 " class="sva" style="animation-delay: 1.5s; --sva-len: 116.3px; --sva-sc: rgb(51, 51, 51); --sva-sw: 1.81px; --sva-se: 0;"/></g></g></g></g><g><g fill="#333333" fill-opacity="1"><g transform="translate(110.398876, 608.547827)"><g><path d="M 10.09375 -18.65625 C 11.40625 -18.65625 12.554688 -18.40625 13.546875 -17.90625 C 14.535156 -17.40625 15.347656 -16.710938 15.984375 -15.828125 C 16.617188 -14.953125 17.09375 -13.953125 17.40625 -12.828125 C 17.71875 -11.710938 17.875 -10.546875 17.875 -9.328125 C 17.875 -7.617188 17.59375 -6.054688 17.03125 -4.640625 C 16.476562 -3.234375 15.628906 -2.109375 14.484375 -1.265625 C 13.335938 -0.421875 11.875 0 10.09375 0 L 3.296875 0 C 3.085938 0 2.898438 -0.078125 2.734375 -0.234375 C 2.578125 -0.398438 2.5 -0.585938 2.5 -0.796875 L 2.5 -17.84375 C 2.5 -18.0625 2.578125 -18.25 2.734375 -18.40625 C 2.898438 -18.570312 3.085938 -18.65625 3.296875 -18.65625 Z M 9.828125 -1.578125 C 11.335938 -1.578125 12.550781 -1.921875 13.46875 -2.609375 C 14.394531 -3.304688 15.078125 -4.242188 15.515625 -5.421875 C 15.953125 -6.597656 16.171875 -7.898438 16.171875 -9.328125 C 16.171875 -10.359375 16.050781 -11.335938 15.8125 -12.265625 C 15.570312 -13.203125 15.195312 -14.03125 14.6875 -14.75 C 14.1875 -15.46875 13.53125 -16.035156 12.71875 -16.453125 C 11.914062 -16.867188 10.953125 -17.078125 9.828125 -17.078125 L 4 -17.078125 L 4.1875 -17.3125 L 4.1875 -1.3125 L 4.015625 -1.578125 Z M 9.828125 -1.578125 " class="sva" style="animation-delay: 1.563s; --sva-len: 112.5px; --sva-sc: rgb(51, 51, 51); --sva-sw: 1.81px; --sva-se: 0;"/></g></g></g></g><g><g fill="#333333" fill-opacity="1"><g transform="translate(129.544765, 608.547827)"><g/></g></g></g><g><g fill="#333333" fill-opacity="1"><g transform="translate(136.814343, 608.547827)"><g><path d="M 13.609375 -18.75 C 13.835938 -18.75 14.023438 -18.664062 14.171875 -18.5 C 14.328125 -18.332031 14.40625 -18.148438 14.40625 -17.953125 C 14.40625 -17.867188 14.390625 -17.785156 14.359375 -17.703125 C 14.335938 -17.617188 14.300781 -17.535156 14.25 -17.453125 L 8 -8.84375 L 8.3125 -9.890625 L 8.3125 -0.796875 C 8.3125 -0.585938 8.226562 -0.398438 8.0625 -0.234375 C 7.90625 -0.078125 7.710938 0 7.484375 0 C 7.253906 0 7.0625 -0.078125 6.90625 -0.234375 C 6.757812 -0.398438 6.6875 -0.585938 6.6875 -0.796875 L 6.6875 -9.703125 L 6.8125 -9.0625 L 0.71875 -17.390625 C 0.644531 -17.484375 0.585938 -17.578125 0.546875 -17.671875 C 0.515625 -17.773438 0.5 -17.867188 0.5 -17.953125 C 0.5 -18.179688 0.59375 -18.367188 0.78125 -18.515625 C 0.96875 -18.671875 1.160156 -18.75 1.359375 -18.75 C 1.628906 -18.75 1.851562 -18.625 2.03125 -18.375 L 7.75 -10.578125 L 7.359375 -10.625 L 12.921875 -18.375 C 13.097656 -18.625 13.328125 -18.75 13.609375 -18.75 Z M 13.609375 -18.75 " class="sva" style="animation-delay: 1.625s; --sva-len: 69.1px; --sva-sc: rgb(51, 51, 51); --sva-sw: 1.81px; --sva-se: 0;"/></g></g></g></g><g><g fill="#333333" fill-opacity="1"><g transform="translate(151.007075, 608.547827)"><g><path d="M 19.125 -9.328125 C 19.125 -7.921875 18.90625 -6.632812 18.46875 -5.46875 C 18.039062 -4.3125 17.425781 -3.300781 16.625 -2.4375 C 15.820312 -1.570312 14.875 -0.90625 13.78125 -0.4375 C 12.6875 0.03125 11.492188 0.265625 10.203125 0.265625 C 8.910156 0.265625 7.71875 0.03125 6.625 -0.4375 C 5.53125 -0.90625 4.582031 -1.570312 3.78125 -2.4375 C 2.976562 -3.300781 2.359375 -4.3125 1.921875 -5.46875 C 1.492188 -6.632812 1.28125 -7.921875 1.28125 -9.328125 C 1.28125 -10.722656 1.492188 -12.003906 1.921875 -13.171875 C 2.359375 -14.335938 2.976562 -15.347656 3.78125 -16.203125 C 4.582031 -17.066406 5.53125 -17.734375 6.625 -18.203125 C 7.71875 -18.679688 8.910156 -18.921875 10.203125 -18.921875 C 11.492188 -18.921875 12.6875 -18.679688 13.78125 -18.203125 C 14.875 -17.734375 15.820312 -17.066406 16.625 -16.203125 C 17.425781 -15.347656 18.039062 -14.335938 18.46875 -13.171875 C 18.90625 -12.003906 19.125 -10.722656 19.125 -9.328125 Z M 17.421875 -9.328125 C 17.421875 -10.898438 17.113281 -12.285156 16.5 -13.484375 C 15.882812 -14.691406 15.035156 -15.628906 13.953125 -16.296875 C 12.867188 -16.972656 11.617188 -17.3125 10.203125 -17.3125 C 8.796875 -17.3125 7.546875 -16.972656 6.453125 -16.296875 C 5.367188 -15.628906 4.519531 -14.691406 3.90625 -13.484375 C 3.289062 -12.285156 2.984375 -10.898438 2.984375 -9.328125 C 2.984375 -7.742188 3.289062 -6.351562 3.90625 -5.15625 C 4.519531 -3.957031 5.367188 -3.019531 6.453125 -2.34375 C 7.546875 -1.664062 8.796875 -1.328125 10.203125 -1.328125 C 11.617188 -1.328125 12.867188 -1.664062 13.953125 -2.34375 C 15.035156 -3.019531 15.882812 -3.957031 16.5 -5.15625 C 17.113281 -6.351562 17.421875 -7.742188 17.421875 -9.328125 Z M 17.421875 -9.328125 " class="sva" style="animation-delay: 1.688s; --sva-len: 108.1px; --sva-sc: rgb(51, 51, 51); --sva-sw: 1.81px; --sva-se: 0;"/></g></g></g></g><g><g fill="#333333" fill-opacity="1"><g transform="translate(171.404505, 608.547827)"><g><path d="M 15.6875 -18.65625 C 15.9375 -18.65625 16.128906 -18.578125 16.265625 -18.421875 C 16.410156 -18.273438 16.484375 -18.082031 16.484375 -17.84375 L 16.484375 -6.8125 C 16.484375 -5.5 16.171875 -4.3125 15.546875 -3.25 C 14.929688 -2.1875 14.097656 -1.335938 13.046875 -0.703125 C 12.003906 -0.078125 10.828125 0.234375 9.515625 0.234375 C 8.203125 0.234375 7.015625 -0.078125 5.953125 -0.703125 C 4.898438 -1.335938 4.0625 -2.1875 3.4375 -3.25 C 2.8125 -4.3125 2.5 -5.5 2.5 -6.8125 L 2.5 -17.84375 C 2.5 -18.082031 2.570312 -18.273438 2.71875 -18.421875 C 2.875 -18.578125 3.085938 -18.65625 3.359375 -18.65625 C 3.566406 -18.65625 3.75 -18.578125 3.90625 -18.421875 C 4.070312 -18.273438 4.15625 -18.082031 4.15625 -17.84375 L 4.15625 -6.8125 C 4.15625 -5.789062 4.398438 -4.867188 4.890625 -4.046875 C 5.378906 -3.234375 6.03125 -2.582031 6.84375 -2.09375 C 7.664062 -1.601562 8.554688 -1.359375 9.515625 -1.359375 C 10.503906 -1.359375 11.40625 -1.601562 12.21875 -2.09375 C 13.039062 -2.582031 13.695312 -3.234375 14.1875 -4.046875 C 14.675781 -4.867188 14.921875 -5.789062 14.921875 -6.8125 L 14.921875 -17.84375 C 14.921875 -18.082031 14.988281 -18.273438 15.125 -18.421875 C 15.269531 -18.578125 15.457031 -18.65625 15.6875 -18.65625 Z M 15.6875 -18.65625 " class="sva" style="animation-delay: 1.75s; --sva-len: 89.4px; --sva-sc: rgb(51, 51, 51); --sva-sw: 1.81px; --sva-se: 0;"/></g></g></g></g><g><g fill="#333333" fill-opacity="1"><g transform="translate(190.390619, 608.547827)"><g><path d="M 3.40625 0 C 3.144531 0 2.925781 -0.078125 2.75 -0.234375 C 2.582031 -0.398438 2.5 -0.585938 2.5 -0.796875 L 2.5 -17.84375 C 2.5 -18.0625 2.578125 -18.25 2.734375 -18.40625 C 2.898438 -18.570312 3.085938 -18.65625 3.296875 -18.65625 L 10.5 -18.65625 C 11.507812 -18.65625 12.410156 -18.4375 13.203125 -18 C 14.003906 -17.5625 14.628906 -16.957031 15.078125 -16.1875 C 15.535156 -15.425781 15.765625 -14.566406 15.765625 -13.609375 C 15.765625 -12.828125 15.625 -12.109375 15.34375 -11.453125 C 15.0625 -10.796875 14.660156 -10.238281 14.140625 -9.78125 C 13.628906 -9.332031 13.054688 -9.003906 12.421875 -8.796875 L 11.484375 -9.078125 C 12.140625 -9.023438 12.75 -8.816406 13.3125 -8.453125 C 13.882812 -8.085938 14.34375 -7.585938 14.6875 -6.953125 C 15.039062 -6.328125 15.222656 -5.570312 15.234375 -4.6875 C 15.253906 -3.925781 15.296875 -3.332031 15.359375 -2.90625 C 15.421875 -2.476562 15.515625 -2.15625 15.640625 -1.9375 C 15.765625 -1.726562 15.925781 -1.5625 16.125 -1.4375 C 16.300781 -1.332031 16.421875 -1.179688 16.484375 -0.984375 C 16.546875 -0.785156 16.519531 -0.597656 16.40625 -0.421875 C 16.332031 -0.285156 16.226562 -0.1875 16.09375 -0.125 C 15.96875 -0.0625 15.832031 -0.03125 15.6875 -0.03125 C 15.550781 -0.03125 15.410156 -0.0664062 15.265625 -0.140625 C 15.015625 -0.273438 14.757812 -0.492188 14.5 -0.796875 C 14.25 -1.097656 14.035156 -1.539062 13.859375 -2.125 C 13.691406 -2.71875 13.609375 -3.535156 13.609375 -4.578125 C 13.609375 -5.273438 13.5 -5.84375 13.28125 -6.28125 C 13.0625 -6.726562 12.773438 -7.070312 12.421875 -7.3125 C 12.078125 -7.550781 11.695312 -7.71875 11.28125 -7.8125 C 10.863281 -7.914062 10.46875 -7.96875 10.09375 -7.96875 L 3.890625 -7.96875 L 4.1875 -8.34375 L 4.1875 -0.796875 C 4.1875 -0.585938 4.113281 -0.398438 3.96875 -0.234375 C 3.820312 -0.078125 3.632812 0 3.40625 0 Z M 3.890625 -9.4375 L 10.578125 -9.4375 C 11.179688 -9.488281 11.75 -9.6875 12.28125 -10.03125 C 12.8125 -10.375 13.238281 -10.847656 13.5625 -11.453125 C 13.894531 -12.054688 14.0625 -12.757812 14.0625 -13.5625 C 14.0625 -14.570312 13.71875 -15.410156 13.03125 -16.078125 C 12.351562 -16.742188 11.460938 -17.078125 10.359375 -17.078125 L 4 -17.078125 L 4.1875 -17.453125 L 4.1875 -9.0625 Z M 3.890625 -9.4375 " class="sva" style="animation-delay: 1.813s; --sva-len: 115.6px; --sva-sc: rgb(51, 51, 51); --sva-sw: 1.81px; --sva-se: 0;"/></g></g></g></g><g><g fill="#333333" fill-opacity="1"><g transform="translate(208.231713, 608.547827)"><g/></g></g></g><g><g fill="#333333" fill-opacity="1"><g transform="translate(215.501291, 608.547827)"><g><path d="M 15.984375 -18.671875 C 16.234375 -18.671875 16.429688 -18.597656 16.578125 -18.453125 C 16.734375 -18.316406 16.8125 -18.140625 16.8125 -17.921875 C 16.8125 -17.804688 16.785156 -17.675781 16.734375 -17.53125 L 9.625 -0.53125 C 9.53125 -0.351562 9.410156 -0.21875 9.265625 -0.125 C 9.128906 -0.0390625 8.988281 0 8.84375 0 C 8.6875 0 8.535156 -0.0390625 8.390625 -0.125 C 8.242188 -0.21875 8.144531 -0.34375 8.09375 -0.5 L 1.015625 -17.46875 C 0.992188 -17.53125 0.972656 -17.59375 0.953125 -17.65625 C 0.941406 -17.726562 0.9375 -17.8125 0.9375 -17.90625 C 0.9375 -18.132812 1.019531 -18.316406 1.1875 -18.453125 C 1.351562 -18.597656 1.523438 -18.671875 1.703125 -18.671875 C 2.078125 -18.671875 2.34375 -18.476562 2.5 -18.09375 L 9.171875 -2.15625 L 8.6875 -2.15625 L 15.234375 -18.140625 C 15.410156 -18.492188 15.660156 -18.671875 15.984375 -18.671875 Z M 15.984375 -18.671875 " class="sva" style="animation-delay: 1.875s; --sva-len: 80.1px; --sva-sc: rgb(51, 51, 51); --sva-sw: 1.81px; --sva-se: 0;"/></g></g></g></g><g><g fill="#333333" fill-opacity="1"><g transform="translate(232.916233, 608.547827)"><g><path d="M 19.125 -9.328125 C 19.125 -7.921875 18.90625 -6.632812 18.46875 -5.46875 C 18.039062 -4.3125 17.425781 -3.300781 16.625 -2.4375 C 15.820312 -1.570312 14.875 -0.90625 13.78125 -0.4375 C 12.6875 0.03125 11.492188 0.265625 10.203125 0.265625 C 8.910156 0.265625 7.71875 0.03125 6.625 -0.4375 C 5.53125 -0.90625 4.582031 -1.570312 3.78125 -2.4375 C 2.976562 -3.300781 2.359375 -4.3125 1.921875 -5.46875 C 1.492188 -6.632812 1.28125 -7.921875 1.28125 -9.328125 C 1.28125 -10.722656 1.492188 -12.003906 1.921875 -13.171875 C 2.359375 -14.335938 2.976562 -15.347656 3.78125 -16.203125 C 4.582031 -17.066406 5.53125 -17.734375 6.625 -18.203125 C 7.71875 -18.679688 8.910156 -18.921875 10.203125 -18.921875 C 11.492188 -18.921875 12.6875 -18.679688 13.78125 -18.203125 C 14.875 -17.734375 15.820312 -17.066406 16.625 -16.203125 C 17.425781 -15.347656 18.039062 -14.335938 18.46875 -13.171875 C 18.90625 -12.003906 19.125 -10.722656 19.125 -9.328125 Z M 17.421875 -9.328125 C 17.421875 -10.898438 17.113281 -12.285156 16.5 -13.484375 C 15.882812 -14.691406 15.035156 -15.628906 13.953125 -16.296875 C 12.867188 -16.972656 11.617188 -17.3125 10.203125 -17.3125 C 8.796875 -17.3125 7.546875 -16.972656 6.453125 -16.296875 C 5.367188 -15.628906 4.519531 -14.691406 3.90625 -13.484375 C 3.289062 -12.285156 2.984375 -10.898438 2.984375 -9.328125 C 2.984375 -7.742188 3.289062 -6.351562 3.90625 -5.15625 C 4.519531 -3.957031 5.367188 -3.019531 6.453125 -2.34375 C 7.546875 -1.664062 8.796875 -1.328125 10.203125 -1.328125 C 11.617188 -1.328125 12.867188 -1.664062 13.953125 -2.34375 C 15.035156 -3.019531 15.882812 -3.957031 16.5 -5.15625 C 17.113281 -6.351562 17.421875 -7.742188 17.421875 -9.328125 Z M 17.421875 -9.328125 " class="sva" style="animation-delay: 1.938s; --sva-len: 108.1px; --sva-sc: rgb(51, 51, 51); --sva-sw: 1.81px; --sva-se: 0;"/></g></g></g></g><g><g fill="#333333" fill-opacity="1"><g transform="translate(253.313651, 608.547827)"><g><path d="M 16.125 -17.265625 C 16.332031 -17.117188 16.453125 -16.9375 16.484375 -16.71875 C 16.523438 -16.5 16.472656 -16.28125 16.328125 -16.0625 C 16.203125 -15.90625 16.039062 -15.816406 15.84375 -15.796875 C 15.65625 -15.773438 15.472656 -15.8125 15.296875 -15.90625 C 14.617188 -16.351562 13.894531 -16.695312 13.125 -16.9375 C 12.351562 -17.1875 11.519531 -17.3125 10.625 -17.3125 C 9.539062 -17.3125 8.53125 -17.117188 7.59375 -16.734375 C 6.664062 -16.359375 5.851562 -15.8125 5.15625 -15.09375 C 4.46875 -14.375 3.929688 -13.523438 3.546875 -12.546875 C 3.171875 -11.566406 2.984375 -10.492188 2.984375 -9.328125 C 2.984375 -8.117188 3.175781 -7.019531 3.5625 -6.03125 C 3.957031 -5.050781 4.503906 -4.203125 5.203125 -3.484375 C 5.910156 -2.773438 6.722656 -2.234375 7.640625 -1.859375 C 8.566406 -1.492188 9.5625 -1.3125 10.625 -1.3125 C 11.5 -1.3125 12.320312 -1.429688 13.09375 -1.671875 C 13.863281 -1.921875 14.585938 -2.257812 15.265625 -2.6875 C 15.441406 -2.789062 15.628906 -2.828125 15.828125 -2.796875 C 16.035156 -2.773438 16.203125 -2.675781 16.328125 -2.5 C 16.492188 -2.3125 16.550781 -2.101562 16.5 -1.875 C 16.457031 -1.65625 16.335938 -1.484375 16.140625 -1.359375 C 15.703125 -1.078125 15.179688 -0.8125 14.578125 -0.5625 C 13.972656 -0.3125 13.332031 -0.113281 12.65625 0.03125 C 11.976562 0.1875 11.300781 0.265625 10.625 0.265625 C 9.351562 0.265625 8.15625 0.0351562 7.03125 -0.421875 C 5.914062 -0.890625 4.921875 -1.546875 4.046875 -2.390625 C 3.179688 -3.234375 2.503906 -4.238281 2.015625 -5.40625 C 1.523438 -6.582031 1.28125 -7.890625 1.28125 -9.328125 C 1.28125 -10.710938 1.519531 -11.984375 2 -13.140625 C 2.476562 -14.304688 3.144531 -15.316406 4 -16.171875 C 4.851562 -17.023438 5.847656 -17.691406 6.984375 -18.171875 C 8.117188 -18.648438 9.332031 -18.890625 10.625 -18.890625 C 11.632812 -18.890625 12.609375 -18.742188 13.546875 -18.453125 C 14.492188 -18.171875 15.351562 -17.773438 16.125 -17.265625 Z M 16.125 -17.265625 " class="sva" style="animation-delay: 2s; --sva-len: 82.2px; --sva-sc: rgb(51, 51, 51); --sva-sw: 1.81px; --sva-se: 0;"/></g></g></g></g><g><g fill="#333333" fill-opacity="1"><g transform="translate(270.702051, 608.547827)"><g><path d="M 8.734375 -16.59375 L 2.265625 -0.5 C 2.191406 -0.320312 2.09375 -0.1875 1.96875 -0.09375 C 1.84375 -0.0078125 1.703125 0.03125 1.546875 0.03125 C 1.296875 0.03125 1.109375 -0.0351562 0.984375 -0.171875 C 0.859375 -0.304688 0.785156 -0.472656 0.765625 -0.671875 C 0.753906 -0.753906 0.765625 -0.859375 0.796875 -0.984375 L 7.828125 -18.203125 C 7.921875 -18.390625 8.03125 -18.523438 8.15625 -18.609375 C 8.289062 -18.691406 8.445312 -18.734375 8.625 -18.734375 C 8.800781 -18.734375 8.957031 -18.679688 9.09375 -18.578125 C 9.226562 -18.484375 9.332031 -18.359375 9.40625 -18.203125 L 16.40625 -1.0625 C 16.445312 -0.957031 16.46875 -0.851562 16.46875 -0.75 C 16.46875 -0.5 16.382812 -0.304688 16.21875 -0.171875 C 16.0625 -0.0351562 15.878906 0.03125 15.671875 0.03125 C 15.484375 0.03125 15.320312 -0.015625 15.1875 -0.109375 C 15.0625 -0.210938 14.960938 -0.34375 14.890625 -0.5 L 8.265625 -16.703125 Z M 3.8125 -5.375 L 4.46875 -6.953125 L 12.734375 -6.953125 L 13.046875 -5.375 Z M 3.8125 -5.375 " class="sva" style="animation-delay: 2.063s; --sva-len: 101.3px; --sva-sc: rgb(51, 51, 51); --sva-sw: 1.81px; --sva-se: 0;"/></g></g></g></g><g><g fill="#333333" fill-opacity="1"><g transform="translate(287.930697, 608.547827)"><g><path d="M 10.359375 -18.65625 C 11.847656 -18.65625 13.015625 -18.25 13.859375 -17.4375 C 14.703125 -16.625 15.125 -15.5 15.125 -14.0625 C 15.125 -13.320312 14.960938 -12.613281 14.640625 -11.9375 C 14.328125 -11.257812 13.859375 -10.710938 13.234375 -10.296875 C 12.617188 -9.878906 11.847656 -9.644531 10.921875 -9.59375 L 10.8125 -10.125 C 11.46875 -10.125 12.109375 -10.03125 12.734375 -9.84375 C 13.367188 -9.65625 13.9375 -9.359375 14.4375 -8.953125 C 14.9375 -8.546875 15.335938 -8.035156 15.640625 -7.421875 C 15.941406 -6.804688 16.09375 -6.0625 16.09375 -5.1875 C 16.09375 -4.269531 15.9375 -3.476562 15.625 -2.8125 C 15.3125 -2.144531 14.894531 -1.609375 14.375 -1.203125 C 13.851562 -0.796875 13.253906 -0.492188 12.578125 -0.296875 C 11.898438 -0.0976562 11.195312 0 10.46875 0 L 3.296875 0 C 3.085938 0 2.898438 -0.078125 2.734375 -0.234375 C 2.578125 -0.398438 2.5 -0.585938 2.5 -0.796875 L 2.5 -17.84375 C 2.5 -18.0625 2.578125 -18.25 2.734375 -18.40625 C 2.898438 -18.570312 3.085938 -18.65625 3.296875 -18.65625 Z M 10.15625 -17.078125 L 3.890625 -17.078125 L 4.203125 -17.5625 L 4.203125 -10.015625 L 3.921875 -10.421875 L 10.15625 -10.421875 C 11.070312 -10.429688 11.84375 -10.726562 12.46875 -11.3125 C 13.101562 -11.90625 13.421875 -12.78125 13.421875 -13.9375 C 13.421875 -14.90625 13.132812 -15.671875 12.5625 -16.234375 C 12 -16.796875 11.195312 -17.078125 10.15625 -17.078125 Z M 10.34375 -8.8125 L 4.078125 -8.8125 L 4.203125 -8.984375 L 4.203125 -1.328125 L 4.046875 -1.578125 L 10.390625 -1.578125 C 11.523438 -1.578125 12.472656 -1.863281 13.234375 -2.4375 C 14.003906 -3.007812 14.390625 -3.925781 14.390625 -5.1875 C 14.390625 -6.082031 14.203125 -6.796875 13.828125 -7.328125 C 13.453125 -7.859375 12.953125 -8.238281 12.328125 -8.46875 C 11.710938 -8.695312 11.050781 -8.8125 10.34375 -8.8125 Z M 10.34375 -8.8125 " class="sva" style="animation-delay: 2.125s; --sva-len: 131.2px; --sva-sc: rgb(51, 51, 51); --sva-sw: 1.81px; --sva-se: 0;"/></g></g></g></g><g><g fill="#333333" fill-opacity="1"><g transform="translate(305.265853, 608.547827)"><g><path d="M 15.6875 -18.65625 C 15.9375 -18.65625 16.128906 -18.578125 16.265625 -18.421875 C 16.410156 -18.273438 16.484375 -18.082031 16.484375 -17.84375 L 16.484375 -6.8125 C 16.484375 -5.5 16.171875 -4.3125 15.546875 -3.25 C 14.929688 -2.1875 14.097656 -1.335938 13.046875 -0.703125 C 12.003906 -0.078125 10.828125 0.234375 9.515625 0.234375 C 8.203125 0.234375 7.015625 -0.078125 5.953125 -0.703125 C 4.898438 -1.335938 4.0625 -2.1875 3.4375 -3.25 C 2.8125 -4.3125 2.5 -5.5 2.5 -6.8125 L 2.5 -17.84375 C 2.5 -18.082031 2.570312 -18.273438 2.71875 -18.421875 C 2.875 -18.578125 3.085938 -18.65625 3.359375 -18.65625 C 3.566406 -18.65625 3.75 -18.578125 3.90625 -18.421875 C 4.070312 -18.273438 4.15625 -18.082031 4.15625 -17.84375 L 4.15625 -6.8125 C 4.15625 -5.789062 4.398438 -4.867188 4.890625 -4.046875 C 5.378906 -3.234375 6.03125 -2.582031 6.84375 -2.09375 C 7.664062 -1.601562 8.554688 -1.359375 9.515625 -1.359375 C 10.503906 -1.359375 11.40625 -1.601562 12.21875 -2.09375 C 13.039062 -2.582031 13.695312 -3.234375 14.1875 -4.046875 C 14.675781 -4.867188 14.921875 -5.789062 14.921875 -6.8125 L 14.921875 -17.84375 C 14.921875 -18.082031 14.988281 -18.273438 15.125 -18.421875 C 15.269531 -18.578125 15.457031 -18.65625 15.6875 -18.65625 Z M 15.6875 -18.65625 " class="sva" style="animation-delay: 2.188s; --sva-len: 89.4px; --sva-sc: rgb(51, 51, 51); --sva-sw: 1.81px; --sva-se: 0;"/></g></g></g></g><g><g fill="#333333" fill-opacity="1"><g transform="translate(324.251967, 608.547827)"><g><path d="M 12.8125 -1.578125 C 13.03125 -1.578125 13.21875 -1.5 13.375 -1.34375 C 13.53125 -1.195312 13.609375 -1.015625 13.609375 -0.796875 C 13.609375 -0.566406 13.53125 -0.375 13.375 -0.21875 C 13.21875 -0.0703125 13.03125 0 12.8125 0 L 3.296875 0 C 3.066406 0 2.875 -0.078125 2.71875 -0.234375 C 2.570312 -0.398438 2.5 -0.585938 2.5 -0.796875 L 2.5 -17.84375 C 2.5 -18.0625 2.578125 -18.25 2.734375 -18.40625 C 2.898438 -18.570312 3.109375 -18.65625 3.359375 -18.65625 C 3.566406 -18.65625 3.753906 -18.570312 3.921875 -18.40625 C 4.097656 -18.25 4.1875 -18.0625 4.1875 -17.84375 L 4.1875 -1.125 L 3.671875 -1.578125 Z M 12.8125 -1.578125 " class="sva" style="animation-delay: 2.25s; --sva-len: 60.5px; --sva-sc: rgb(51, 51, 51); --sva-sw: 1.81px; --sva-se: 0;"/></g></g></g></g><g><g fill="#333333" fill-opacity="1"><g transform="translate(338.418329, 608.547827)"><g><path d="M 8.734375 -16.59375 L 2.265625 -0.5 C 2.191406 -0.320312 2.09375 -0.1875 1.96875 -0.09375 C 1.84375 -0.0078125 1.703125 0.03125 1.546875 0.03125 C 1.296875 0.03125 1.109375 -0.0351562 0.984375 -0.171875 C 0.859375 -0.304688 0.785156 -0.472656 0.765625 -0.671875 C 0.753906 -0.753906 0.765625 -0.859375 0.796875 -0.984375 L 7.828125 -18.203125 C 7.921875 -18.390625 8.03125 -18.523438 8.15625 -18.609375 C 8.289062 -18.691406 8.445312 -18.734375 8.625 -18.734375 C 8.800781 -18.734375 8.957031 -18.679688 9.09375 -18.578125 C 9.226562 -18.484375 9.332031 -18.359375 9.40625 -18.203125 L 16.40625 -1.0625 C 16.445312 -0.957031 16.46875 -0.851562 16.46875 -0.75 C 16.46875 -0.5 16.382812 -0.304688 16.21875 -0.171875 C 16.0625 -0.0351562 15.878906 0.03125 15.671875 0.03125 C 15.484375 0.03125 15.320312 -0.015625 15.1875 -0.109375 C 15.0625 -0.210938 14.960938 -0.34375 14.890625 -0.5 L 8.265625 -16.703125 Z M 3.8125 -5.375 L 4.46875 -6.953125 L 12.734375 -6.953125 L 13.046875 -5.375 Z M 3.8125 -5.375 " class="sva" style="animation-delay: 2.313s; --sva-len: 101.3px; --sva-sc: rgb(51, 51, 51); --sva-sw: 1.81px; --sva-se: 0;"/></g></g></g></g><g><g fill="#333333" fill-opacity="1"><g transform="translate(355.646952, 608.547827)"><g><path d="M 3.40625 0 C 3.144531 0 2.925781 -0.078125 2.75 -0.234375 C 2.582031 -0.398438 2.5 -0.585938 2.5 -0.796875 L 2.5 -17.84375 C 2.5 -18.0625 2.578125 -18.25 2.734375 -18.40625 C 2.898438 -18.570312 3.085938 -18.65625 3.296875 -18.65625 L 10.5 -18.65625 C 11.507812 -18.65625 12.410156 -18.4375 13.203125 -18 C 14.003906 -17.5625 14.628906 -16.957031 15.078125 -16.1875 C 15.535156 -15.425781 15.765625 -14.566406 15.765625 -13.609375 C 15.765625 -12.828125 15.625 -12.109375 15.34375 -11.453125 C 15.0625 -10.796875 14.660156 -10.238281 14.140625 -9.78125 C 13.628906 -9.332031 13.054688 -9.003906 12.421875 -8.796875 L 11.484375 -9.078125 C 12.140625 -9.023438 12.75 -8.816406 13.3125 -8.453125 C 13.882812 -8.085938 14.34375 -7.585938 14.6875 -6.953125 C 15.039062 -6.328125 15.222656 -5.570312 15.234375 -4.6875 C 15.253906 -3.925781 15.296875 -3.332031 15.359375 -2.90625 C 15.421875 -2.476562 15.515625 -2.15625 15.640625 -1.9375 C 15.765625 -1.726562 15.925781 -1.5625 16.125 -1.4375 C 16.300781 -1.332031 16.421875 -1.179688 16.484375 -0.984375 C 16.546875 -0.785156 16.519531 -0.597656 16.40625 -0.421875 C 16.332031 -0.285156 16.226562 -0.1875 16.09375 -0.125 C 15.96875 -0.0625 15.832031 -0.03125 15.6875 -0.03125 C 15.550781 -0.03125 15.410156 -0.0664062 15.265625 -0.140625 C 15.015625 -0.273438 14.757812 -0.492188 14.5 -0.796875 C 14.25 -1.097656 14.035156 -1.539062 13.859375 -2.125 C 13.691406 -2.71875 13.609375 -3.535156 13.609375 -4.578125 C 13.609375 -5.273438 13.5 -5.84375 13.28125 -6.28125 C 13.0625 -6.726562 12.773438 -7.070312 12.421875 -7.3125 C 12.078125 -7.550781 11.695312 -7.71875 11.28125 -7.8125 C 10.863281 -7.914062 10.46875 -7.96875 10.09375 -7.96875 L 3.890625 -7.96875 L 4.1875 -8.34375 L 4.1875 -0.796875 C 4.1875 -0.585938 4.113281 -0.398438 3.96875 -0.234375 C 3.820312 -0.078125 3.632812 0 3.40625 0 Z M 3.890625 -9.4375 L 10.578125 -9.4375 C 11.179688 -9.488281 11.75 -9.6875 12.28125 -10.03125 C 12.8125 -10.375 13.238281 -10.847656 13.5625 -11.453125 C 13.894531 -12.054688 14.0625 -12.757812 14.0625 -13.5625 C 14.0625 -14.570312 13.71875 -15.410156 13.03125 -16.078125 C 12.351562 -16.742188 11.460938 -17.078125 10.359375 -17.078125 L 4 -17.078125 L 4.1875 -17.453125 L 4.1875 -9.0625 Z M 3.890625 -9.4375 " class="sva" style="animation-delay: 2.375s; --sva-len: 115.6px; --sva-sc: rgb(51, 51, 51); --sva-sw: 1.81px; --sva-se: 0;"/></g></g></g></g><g><g fill="#333333" fill-opacity="1"><g transform="translate(372.955293, 608.547827)"><g><path d="M 13.609375 -18.75 C 13.835938 -18.75 14.023438 -18.664062 14.171875 -18.5 C 14.328125 -18.332031 14.40625 -18.148438 14.40625 -17.953125 C 14.40625 -17.867188 14.390625 -17.785156 14.359375 -17.703125 C 14.335938 -17.617188 14.300781 -17.535156 14.25 -17.453125 L 8 -8.84375 L 8.3125 -9.890625 L 8.3125 -0.796875 C 8.3125 -0.585938 8.226562 -0.398438 8.0625 -0.234375 C 7.90625 -0.078125 7.710938 0 7.484375 0 C 7.253906 0 7.0625 -0.078125 6.90625 -0.234375 C 6.757812 -0.398438 6.6875 -0.585938 6.6875 -0.796875 L 6.6875 -9.703125 L 6.8125 -9.0625 L 0.71875 -17.390625 C 0.644531 -17.484375 0.585938 -17.578125 0.546875 -17.671875 C 0.515625 -17.773438 0.5 -17.867188 0.5 -17.953125 C 0.5 -18.179688 0.59375 -18.367188 0.78125 -18.515625 C 0.96875 -18.671875 1.160156 -18.75 1.359375 -18.75 C 1.628906 -18.75 1.851562 -18.625 2.03125 -18.375 L 7.75 -10.578125 L 7.359375 -10.625 L 12.921875 -18.375 C 13.097656 -18.625 13.328125 -18.75 13.609375 -18.75 Z M 13.609375 -18.75 " class="sva" style="animation-delay: 2.438s; --sva-len: 69.1px; --sva-sc: rgb(51, 51, 51); --sva-sw: 1.81px; --sva-se: 0;"/></g></g></g></g><g><g fill="#333333" fill-opacity="1"><g transform="translate(387.840635, 608.547827)"><g><path d="M 2.3125 0 C 2.007812 0 1.78125 -0.0976562 1.625 -0.296875 C 1.46875 -0.492188 1.390625 -0.738281 1.390625 -1.03125 L 1.390625 -1.59375 C 1.390625 -1.914062 1.46875 -2.164062 1.625 -2.34375 C 1.78125 -2.519531 2.007812 -2.609375 2.3125 -2.609375 L 2.5 -2.609375 C 2.800781 -2.609375 3.03125 -2.519531 3.1875 -2.34375 C 3.351562 -2.164062 3.4375 -1.914062 3.4375 -1.59375 L 3.4375 -1.03125 C 3.4375 -0.738281 3.351562 -0.492188 3.1875 -0.296875 C 3.03125 -0.0976562 2.800781 0 2.5 0 Z M 2.3125 0 " class="sva" style="animation-delay: 2.5s; --sva-len: 8.8px; --sva-sc: rgb(51, 51, 51); --sva-sw: 1.81px; --sva-se: 0;"/></g></g></g></g></svg>